<?xml version="1.0" encoding="UTF-8"?>
<svg id="Livello_1" xmlns="http://www.w3.org/2000/svg" version="1.1" viewBox="0 0 700 200">
  <!-- Generator: Adobe Illustrator 29.3.1, SVG Export Plug-In . SVG Version: 2.1.0 Build 151)  -->
  <defs>
    <style>
      .st0 {
        fill: #003a57;
      }
    </style>
  </defs>
  <path class="st0" d="M152.7,98.7c-12.5,0-24.9,7.1-37.4,21.2l4,5.3c10.4,14.1,19.6,21.2,27.8,21.2s10.8-3,15.4-9.1c4.6-6.1,6.9-12.8,6.9-20.3,0-12.2-5.6-18.3-16.6-18.3M70.4,77.4l4.3,3.4c11.3-6,16.9-14.8,16.9-26.4s-2.2-12.1-6.7-16.3c-4.5-4.2-10.3-6.3-17.4-6.3s-10.4,1.6-14.1,4.7c-3.6,3.2-5.5,7.2-5.5,12.1,0,7.6,7.5,17.2,22.4,28.8M170.6,142.2c-9.7,11.7-19.9,17.6-30.8,17.6s-21.1-7.9-32.1-23.7l-3.7-5.2c-7.2,7.4-15.1,14.4-15.1,14.4-10.3,9-21.7,13.2-33.6,13.2s-17.7-3-24.3-9c-6.6-6-9.9-13.4-9.9-22.1,0-15.7,11.5-30.1,34.5-43.3l-2.2-1.8c-11.8-9.7-17.7-18.5-17.7-26.6s4.2-16.9,12.7-23.9c8.5-7,18.1-10.5,28.8-10.5s15.3,2.3,20.7,7c5.3,4.7,8,10.7,8,18,0,10.7-8.1,21.7-24.4,33.2l-4.1,2.9,2.4,1.8c12.9,8.4,25.6,16.2,26.8,24.9,1.3,9.8-4.4,16-16.8,14.8,3.3-2.5,3.7-6,2.2-8.8-5.8-11-10-9.6-29.8-25.5l-3.8-3c-15.3,11-23,21.6-23,31.8s1.7,17,9.1,22.6c6.4,4.9,14.7,7.9,26.7,4.9h0c2-.7,4-1.5,6-2.4,7.4-3.5,14.9-9.5,22.7-17.8l12.3-11.8c18.5-20,35.5-30,51.1-30s21.7,7,21.7,21-4.8,25.7-14.5,37.4M99.6.4C44.6.4,0,45,0,100s44.6,99.6,99.6,99.6,99.6-44.6,99.6-99.6S154.6.4,99.6.4"/>
  <g>
    <path class="st0" d="M236.3,52.7h32c17.4,0,29.5,8.4,29.5,24.6s-4,15.5-10.7,19.2c10.6,3.1,17.1,11.8,17.1,23.4s-11,25.8-29.1,25.8h-38.8V52.7ZM268.9,92.6c7.7,0,13.8-4,13.8-13.8s-6.1-13.1-14.3-13.1h-16.6v26.9h17.1ZM274.5,132.6c9.3,0,14.5-5.6,14.5-14.2s-4.7-13.2-14.5-13.2h-22.7v27.4h22.7Z"/>
    <path class="st0" d="M311.3,112.4c0-22.3,13.8-35.2,34.2-35.2s30.5,10.6,30.5,31.3-.3,5.7-.6,7.7h-48.9c1.1,13.9,12.1,18.9,25.1,18.9s15.9-2.5,20.3-5.3v11c-3.8,3.8-12.7,6.5-23.1,6.5-22.3,0-37.6-11-37.6-34.9ZM361.7,105.2c-.3-10.3-5.4-16.6-16.1-16.6s-17.3,5.8-18.8,16.6h34.9Z"/>
    <path class="st0" d="M389,62.1h12.4v16.7h22.1v12.3h-22.1v30.6c0,9.3,4.6,13.2,13.6,13.2s8.2-.8,12-2.8v11c-3.2,2.6-8.9,4.2-15.7,4.2-16.1,0-24.9-8.4-24.9-25.5v-40.2c0-8.2.8-15.3,2.6-19.5Z"/>
    <path class="st0" d="M465.3,77.2c10.4,0,17.5,4,21.6,9.2.3-2.9.8-5.6,1.7-7.5h12.4v66.8h-12.3c-1-2.1-1.5-4.9-1.8-8.1-4,5.2-11.4,9.7-22.8,9.7-19.6,0-33.6-11.7-33.6-34.4s14.6-35.8,34.8-35.8ZM467.5,135.2c9.9,0,15.5-4.6,18.4-9.2v-28c-2.5-4.3-8.8-8.8-18-8.8s-21.9,7.4-21.9,23.2,9.5,22.7,21.4,22.7Z"/>
    <path class="st0" d="M552.3,99.3c-6.7-3.7-11-9.9-11-18.9,0-14.6,9.4-24.6,28.8-24.6s28.8,10.1,28.8,24.6-4.2,15.2-11,18.9c8.5,4,14.2,11.2,14.2,22.4,0,17.5-14.6,25.7-32,25.7s-32-7.7-32-25.7,5.7-18.4,14.2-22.4ZM570.2,135.6c10.2,0,17.7-4.9,17.7-15.1s-7.5-15.1-17.7-15.1-17.7,5-17.7,15.1,7.7,15.1,17.7,15.1ZM585.6,80.5c0-8.2-5.8-13.5-15.5-13.5s-15.5,5.3-15.5,13.5,6,13.5,15.5,13.5,15.5-4.8,15.5-13.5Z"/>
    <path class="st0" d="M700,101.3c0,25.3-20.5,45.8-45.8,45.8s-45.8-20.5-45.8-45.8,20.5-45.8,45.8-45.8,45.8,20.5,45.8,45.8ZM654.2,68.1c-18.3,0-33.2,14.9-33.2,33.2s14.9,33.2,33.2,33.2,33.2-14.9,33.2-33.2-14.9-33.2-33.2-33.2Z"/>
  </g>
</svg>