<svg xmlns="http://www.w3.org/2000/svg" width="136.404" height="30.405" viewBox="0 0 136.404 30.405"><g transform="translate(-42.52 -297.732)"><g transform="translate(77.586 305.608)"><g transform="translate(0)"><path d="M336.851,376.233a7.518,7.518,0,0,1-.179,1.572h-9.592l-.358-.537,5.493-10.667h-4.876a5.706,5.706,0,0,1-.129-.816q-.03-.378-.03-.716t.03-.736a5.681,5.681,0,0,1,.129-.836h9.692l.3.577-5.453,10.647h4.8A7.283,7.283,0,0,1,336.851,376.233Z" transform="translate(-326.721 -363.257)" fill="#0058a7"/><path d="M433.166,377.317a7.085,7.085,0,0,1-2.677-.438,3.883,3.883,0,0,1-1.682-1.264,5.032,5.032,0,0,1-.866-2,12.8,12.8,0,0,1-.249-2.647v-8.14q.577-.079,1-.109t.8-.03q.339,0,.746.03t.985.109v7.722a15.2,15.2,0,0,0,.08,1.692,3.607,3.607,0,0,0,.289,1.134,1.291,1.291,0,0,0,.587.627,2.234,2.234,0,0,0,1,.189,2.3,2.3,0,0,0,1-.189,1.282,1.282,0,0,0,.6-.627,3.461,3.461,0,0,0,.279-1.134q.069-.7.07-1.692v-7.722q.6-.079,1.005-.109t.746-.03q.358,0,.776.03t1,.109v8.14a12.825,12.825,0,0,1-.249,2.647,5.042,5.042,0,0,1-.866,2,3.887,3.887,0,0,1-1.682,1.264A7.085,7.085,0,0,1,433.166,377.317Z" transform="translate(-415.235 -362.551)" fill="#0058a7"/><path d="M539.481,368.983q0,4.219,3.542,4.219a5.843,5.843,0,0,0,1.2-.119,12.169,12.169,0,0,0,1.383-.4,10.735,10.735,0,0,1,.876,2.945q-.578.219-1.075.358a8.03,8.03,0,0,1-.955.209q-.458.07-.906.1t-.925.03a7.533,7.533,0,0,1-2.975-.547,5.941,5.941,0,0,1-2.149-1.522,6.434,6.434,0,0,1-1.3-2.329,9.508,9.508,0,0,1-.438-2.945,9.229,9.229,0,0,1,.458-2.955,6.89,6.89,0,0,1,1.323-2.358,5.956,5.956,0,0,1,2.14-1.552,7.134,7.134,0,0,1,2.886-.557,11.281,11.281,0,0,1,1.811.139,9.335,9.335,0,0,1,1.91.557,5.807,5.807,0,0,1-.3,1.582,11.808,11.808,0,0,1-.537,1.343q-.4-.139-.726-.239t-.627-.159q-.3-.06-.6-.09t-.637-.03a3.042,3.042,0,0,0-2.5,1.085A5.027,5.027,0,0,0,539.481,368.983Z" transform="translate(-509.967 -361.56)" fill="#0058a7"/><path d="M633.357,368.983q0,4.219,3.542,4.219a5.848,5.848,0,0,0,1.2-.119,12.178,12.178,0,0,0,1.383-.4,10.742,10.742,0,0,1,.876,2.945q-.578.219-1.075.358a8.031,8.031,0,0,1-.955.209q-.458.07-.906.1t-.925.03a7.534,7.534,0,0,1-2.975-.547,5.941,5.941,0,0,1-2.149-1.522,6.436,6.436,0,0,1-1.3-2.329,9.51,9.51,0,0,1-.438-2.945,9.232,9.232,0,0,1,.457-2.955,6.89,6.89,0,0,1,1.323-2.358,5.955,5.955,0,0,1,2.14-1.552,7.135,7.135,0,0,1,2.886-.557,11.281,11.281,0,0,1,1.811.139,9.336,9.336,0,0,1,1.91.557,5.809,5.809,0,0,1-.3,1.582,11.808,11.808,0,0,1-.537,1.343q-.4-.139-.726-.239t-.627-.159q-.3-.06-.6-.09t-.637-.03a3.043,3.043,0,0,0-2.5,1.085A5.028,5.028,0,0,0,633.357,368.983Z" transform="translate(-592.26 -361.56)" fill="#0058a7"/><path d="M743.452,377.076a10.621,10.621,0,0,1-1.771-.179v-5.811h-3.523V376.9a10.826,10.826,0,0,1-1.751.179,10.624,10.624,0,0,1-1.771-.179v-14.21q.537-.079.975-.119t.776-.04q.358,0,.806.04t.965.119v5.274h3.523v-5.274q.537-.079.965-.119t.786-.04q.358,0,.806.04t.965.119V376.9A10.83,10.83,0,0,1,743.452,377.076Z" transform="translate(-684.305 -362.409)" fill="#0058a7"/><path d="M850.89,370.342a7.629,7.629,0,0,1-.179,1.552H846.87v2.826h4.995a7.284,7.284,0,0,1,.179,1.513,7.519,7.519,0,0,1-.179,1.572h-8.518V363.5h8.4q.079.438.119.816a6.857,6.857,0,0,1,.04.716,9.378,9.378,0,0,1-.159,1.572H846.87v2.189h3.841A7.846,7.846,0,0,1,850.89,370.342Z" transform="translate(-779.603 -363.257)" fill="#0058a7"/><path d="M928.3,366.6h-3.323a6.808,6.808,0,0,1,0-3.1h10.17q.079.438.119.816a6.87,6.87,0,0,1,.04.716,9.4,9.4,0,0,1-.159,1.572h-3.324v11.145a10.823,10.823,0,0,1-1.751.179,10.624,10.624,0,0,1-1.771-.179Z" transform="translate(-851.005 -363.257)" fill="#0058a7"/><path d="M1022.014,366.6h-3.323a6.808,6.808,0,0,1,0-3.1h10.17q.079.438.119.816a6.9,6.9,0,0,1,.04.716,9.4,9.4,0,0,1-.159,1.572h-3.324v11.145a10.824,10.824,0,0,1-1.751.179,10.624,10.624,0,0,1-1.771-.179Z" transform="translate(-933.154 -363.257)" fill="#0058a7"/><path d="M1121.253,377.076a10.623,10.623,0,0,1-1.771-.179v-14.21q.537-.079.975-.119t.776-.04q.358,0,.806.04t.965.119V376.9A10.822,10.822,0,0,1,1121.253,377.076Z" transform="translate(-1021.667 -362.409)" fill="#0058a7"/></g></g><path d="M206.771,380.193h-1.73l-.573.68h2.3Z" transform="translate(-141.966 -72.286)" fill="#0058a7"/><path d="M190.5,402.235h-4.02l-.573.68H190.5Z" transform="translate(-125.695 -91.608)" fill="#0058a7"/><path d="M198.636,391.214h-2.875l-.573.68h3.448Z" transform="translate(-133.832 -81.947)" fill="#0058a7"/><path d="M182.367,413.255H177.2l-.572.68h5.738Z" transform="translate(-117.563 -101.269)" fill="#0058a7"/><path d="M79.119,314.068H77.237v.68h2.54Z" transform="translate(-30.434 -14.32)" fill="#0058a7"/><path d="M80.343,325.089H77.237v.68H81Z" transform="translate(-30.434 -23.981)" fill="#0058a7"/><path d="M77.237,297.732v1.336h1.316Z" transform="translate(-30.434)" fill="#0058a7"/><path d="M77.334,458.019h1.716l.574-.68h-2.29Z" transform="translate(-30.518 -139.914)" fill="#0058a7"/><path d="M77.334,435.97h4.013l.567-.673-4.58.007Z" transform="translate(-30.518 -120.591)" fill="#0058a7"/><path d="M42.52,380.193v.68h6.343l.581-.68Z" transform="translate(-0.001 -72.286)" fill="#0058a7"/><path d="M214.906,365.021v-1.36l-1.158,1.36Z" transform="translate(-150.101 -57.795)" fill="#0058a7"/><path d="M80.769,446.318H77.334V447H80.2Z" transform="translate(-30.518 -130.253)" fill="#0058a7"/><path d="M53.686,413.255H42.52v.68H53.111Z" transform="translate(-0.001 -101.269)" fill="#0058a7"/><path d="M48.348,391.214H42.52v.68H55.4l.572-.68H48.348Z" transform="translate(-0.001 -81.947)" fill="#0058a7"/><path d="M42.52,402.915H54.256l.574-.68H42.52Z" transform="translate(-0.001 -91.608)" fill="#0058a7"/><path d="M50.016,369.852l.572-.68H42.52v.68Z" transform="translate(0 -62.625)" fill="#0058a7"/><path d="M205.278,524.143h1.644v-.68H204.64Z" transform="translate(-142.117 -197.879)" fill="#0058a7"/><path d="M203.72,458.06h6.711v-.674h-6.137Z" transform="translate(-141.311 -139.955)" fill="#0058a7"/><path d="M186.34,502.118h3.983v-.68H185.7Z" transform="translate(-125.517 -178.572)" fill="#0058a7"/><path d="M194.345,469.039h7.867v-.68l-7.292,0Z" transform="translate(-133.092 -149.574)" fill="#0058a7"/><path d="M148.791,447h13.488v-.68H149.365Z" transform="translate(-93.159 -130.253)" fill="#0058a7"/><path d="M167.923,424.276l-.573.68h11.2v-.68Z" transform="translate(-109.428 -110.93)" fill="#0058a7"/><path d="M158.653,435.3l-.571.68h12.342v-.68Z" transform="translate(-101.303 -120.591)" fill="#0058a7"/><path d="M181.9,490.4h-5.8l.637.679H181.9Z" transform="translate(-117.096 -168.896)" fill="#0058a7"/><path d="M215.243,535.678v-1.194h-1.111Z" transform="translate(-150.438 -207.54)" fill="#0058a7"/><path d="M82.779,347.13H77.237v.68h6.212Z" transform="translate(-30.434 -43.303)" fill="#0058a7"/><path d="M52.54,424.276H42.52v.681h9.446Z" transform="translate(-0.001 -110.93)" fill="#0058a7"/><path d="M77.334,468.359v1.36l1.145-1.36Z" transform="translate(-30.518 -149.574)" fill="#0058a7"/><path d="M198.643,512.449H195.2l.637.679h2.808Z" transform="translate(-133.841 -188.224)" fill="#0058a7"/><path d="M81.567,336.109h-4.33v.68h4.988Z" transform="translate(-30.434 -33.642)" fill="#0058a7"/><path d="M54.092,358.679l-.516-.528H42.52v.68H64.805v-.152Z" transform="translate(-0.001 -52.964)" fill="#0058a7"/><path d="M88.372,479.38H77.333v.152H88.515l.495.528H99.638v-.68Z" transform="translate(-30.518 -159.235)" fill="#0058a7"/></g></svg>